<?xml version="1.0" encoding="UTF-8" standalone="no"?>
<svg
   xmlns:dc="http://purl.org/dc/elements/1.1/"
   xmlns:cc="http://creativecommons.org/ns#"
   xmlns:rdf="http://www.w3.org/1999/02/22-rdf-syntax-ns#"
   xmlns:svg="http://www.w3.org/2000/svg"
   xmlns="http://www.w3.org/2000/svg"
   viewBox="0 0 642.66669 244"
   height="244"
   width="642.66669"
   id="svg64"
   version="1.1">
  <metadata
     id="metadata70">
    <rdf:RDF>
      <cc:Work
         rdf:about="">
        <dc:format>image/svg+xml</dc:format>
        <dc:type
           rdf:resource="http://purl.org/dc/dcmitype/StillImage" />
        <dc:title></dc:title>
      </cc:Work>
    </rdf:RDF>
  </metadata>
  <defs
     id="defs68" />
  <path
     id="path78"
     d="m 18.230789,201.00672 c -0.02142,-10.10234 3.01745,-17.27824 13.396712,-17.08545 9.78815,0.18181 13.130291,4.81806 12.93074,16.58023 -0.20311,11.97194 -3.104524,16.83544 -13.924792,16.66257 -11.511614,-0.18393 -12.382871,-6.82244 -12.40266,-16.15735 z m 100.666671,12.7898 c -21.038791,-8.07162 -35.830081,-24.1862 -41.396491,-45.09998 -1.52609,-5.73375 -1.90835,-20.07182 -1.92102,-72.055812 l -0.01503,-61.739634 c -0.0018,-7.56797 6.731922,-11.543699 13.256929,-11.528532 7.53785,0.01752 13.297822,5.241445 13.334612,11.527999 l 0.35885,61.326507 0.3199,54.667442 c 0.0406,6.94286 0.51874,11.65408 3.24808,17.69416 6.12905,13.56368 19.3467,21.61643 35.48087,21.61643 12.03116,0 20.08804,-3.24746 28.21181,-11.37123 11.19852,-11.19853 11.12152,-10.61623 11.12152,-84.101812 V 35.900203 c 0,-8.23003 8.12921,-12.694668 13.29425,-12.674533 7.86042,0.03064 13.33649,5.921428 13.37242,12.518155 v 61.756453 c 0,61.827542 -0.15819,66.269402 -2.64699,74.327202 -5.48865,17.77018 -17.86805,31.59966 -36.01968,40.23887 -8.06849,3.84017 -9.817,4.14816 -25.33333,4.46215 -14.6848,0.29716 -17.61796,-0.0277 -24.66667,-2.73198 z m 186.24162,-9e-4 C 300.97196,209.35992 238.2308,41.929737 238.2308,35.245106 c 0,-7.415247 4.59387,-11.70668 12.53171,-11.70668 4.349,0 6.88172,0.820511 9.26029,3 2.3856,2.18592 10.23448,21.633396 28.92421,71.666672 14.1076,37.766662 25.7485,68.797422 25.86867,68.957242 0.12013,0.15981 11.78636,-30.7402 25.92484,-68.666682 18.9373,-50.799153 26.5753,-69.747203 29.006,-71.957232 4.7475,-4.316336 14.0933,-4.178893 18.5449,0.272727 3.0311,3.031142 3.9065,6.047616 3.3649,11.594713 -0.5397,5.527039 -64.33054,172.547754 -66.97825,175.366094 -2.25925,2.40487 -6.59706,3.50872 -10.75602,3.30881 -3.50513,-0.16848 -6.88322,-1.263 -8.78297,-3.28521 z m 121.12134,-13.3595 c 0.18541,-15.41427 6.42691,-17.0638 13.28017,-16.88763 10.47367,0.26923 13.51235,6.56849 13.72488,16.06169 0.22294,9.9584 -1.88346,17.03963 -13.70135,17.26158 -10.64385,0.1999 -13.36065,-9.48861 -13.3037,-16.43564 z m 56.99303,0.64035 c 3.58131,-11.25178 16.16914,-46.13138 31.03217,-85.85882 24.2388,-64.787556 32.8724,-86.410732 35.4077,-88.679224 4.2661,-3.8171 14.8173,-4.186461 19.0441,-0.666667 4.1472,3.45351 66.78822,171.027381 66.8103,178.727271 0.0167,5.83796 -2.42003,9.97775 -6.99286,11.53533 -4.98755,1.69884 -12.44751,1.65203 -15.76409,-2.23486 -1.58467,-1.85716 -8.79145,-21.89068 -23.92995,-62.36107 -12.4813,-33.36667 -24.2453,-64.752672 -26.1421,-69.74668 l -3.4489,-9.080009 -25.9508,69.080009 c -11.94358,31.79335 -22.99978,58.87014 -26.94729,68.53155 -2.89739,7.09127 -14.62443,7.81589 -18.53266,4.69331 -4.58516,-4.53542 -6.18036,-8.92977 -4.58562,-13.94014 z M 18.230789,164.93829 v -18.24566 c 0,-21.41835 -0.08302,-16.40528 -0.04349,-20.84812 0.0421,-4.73101 6.812816,-9.72661 13.269816,-9.86202 6.106084,-0.12804 12.842289,4.1029 13.062103,9.96899 0.253881,6.77526 -0.117137,28.70129 0.0236,38.87994 0.08746,6.32559 -6.887747,10.54606 -13.818696,10.68282 -6.436183,0.127 -12.455325,-5.41767 -12.493335,-10.57595 z m 408.000031,-1.60335 v -16.33958 -15.78287 c 0.32317,-8.05622 6.87002,-13.56906 13.3333,-13.61345 8.23159,0.12293 13.28404,6.71309 13.3333,13.41798 v 14.4797 c 0,8.36911 -0.3213,12.94495 -0.269,18.04978 -0.49135,7.52797 -5.86232,12.21221 -13.58683,11.99041 -7.69923,-0.22108 -12.81077,-4.85466 -12.81077,-12.20197 z M 18.230789,93.34044 V 64.692629 36.172739 c 0,-9.753601 6.785386,-12.755323 13.670347,-12.822168 8.945359,-0.08685 12.968295,6.732055 13.083783,11.969591 0.151175,6.856026 0.01319,12.831851 -0.32,34.663353 l -0.355636,23.301998 c -0.113029,7.405877 -5.22492,13.027627 -13.5139,12.933247 -8.027504,-0.0914 -12.564594,-6.814152 -12.564594,-12.87832 z M 426.23082,93.564528 V 65.076623 36.369337 c 1.13544,-7.257745 6.40311,-13.15572 13.42469,-13.218373 8.33262,0.551318 12.34233,6.777447 13.24191,13.804789 v 26.772629 c 0,14.491469 -0.24672,24.731265 -0.72198,30.29268 -0.0401,6.865158 -7.0757,12.028508 -12.51577,12.241298 -7.86536,-1.06407 -13.42885,-4.45552 -13.42885,-12.697832 z"
     style="fill:#3dbfc1;fill-opacity:1;stroke-width:1.33333337" />
</svg>
