<svg xmlns="http://www.w3.org/2000/svg" viewBox="0 0 162.98 48.72"><defs><style>.cls-1{opacity:0;}.cls-2{fill:#fff;}.cls-3,.cls-4{fill:#56b366;}.cls-3{fill-rule:evenodd;}</style></defs><title>protonvpn-logo-green</title><g id="Ebene_2" data-name="Ebene 2"><g id="Ebene_1-2" data-name="Ebene 1"><g class="cls-1"><rect class="cls-2" width="162.98" height="48.72"/></g><path class="cls-3" d="M34.19,16.59a2.26,2.26,0,0,0-4.52,0s0,0,0,.07l-9.85,3.18A2.26,2.26,0,1,0,18,23.37a2.23,2.23,0,0,0,.69-.12l6.47,8.17a2.26,2.26,0,1,0,3.55-.83l3.44-11.75A2.25,2.25,0,0,0,34.19,16.59ZM27.2,30a2.24,2.24,0,0,0-1,.25l-6.32-8a2.24,2.24,0,0,0,.32-.94L30.26,18.1a2.26,2.26,0,0,0,.35.32L27.21,30Z"/><path class="cls-4" d="M40.81,17.15h5.4c2.76,0,4.67,1.56,4.67,4.15,0,2.76-2,4.24-4.79,4.24H42.72v5.85h-1.9Zm1.9,6.79H46c1.94,0,2.93-.94,2.93-2.6s-1.19-2.6-2.86-2.6H42.72Z"/><path class="cls-4" d="M53,23.84c0-1.45,0-2.27,0-2.82h1.76c0,.29.06,1.1.06,2.11a3.63,3.63,0,0,1,3.48-2.35v1.78c-2.13.06-3.48,1.19-3.48,3.81v5H53Z"/><path class="cls-4" d="M68.91,26.17c0,3-1.72,5.46-4.89,5.46-3,0-4.77-2.29-4.77-5.42s1.76-5.44,4.89-5.44C67,20.77,68.91,22.92,68.91,26.17Zm-7.82,0c0,2.29,1.15,3.95,3,3.95s3-1.58,3-3.93-1.06-3.95-3-3.95S61.1,23.84,61.1,26.19Z"/><path class="cls-4" d="M69.92,21h1.8V17.95H73.5V21h2.29v1.45H73.5v6.08c0,1,.25,1.54,1.19,1.54a4.74,4.74,0,0,0,.9-.08v1.35a4.79,4.79,0,0,1-1.56.18c-1.62,0-2.31-.84-2.31-2.56V22.47h-1.8Z"/><path class="cls-4" d="M86.56,26.17c0,3-1.72,5.46-4.89,5.46-3,0-4.77-2.29-4.77-5.42s1.76-5.44,4.89-5.44C84.67,20.77,86.56,22.92,86.56,26.17Zm-7.82,0c0,2.29,1.15,3.95,3,3.95s3-1.58,3-3.93-1.06-3.95-3-3.95S78.74,23.84,78.74,26.19Z"/><path class="cls-4" d="M88.89,23.64c0-.9,0-1.82,0-2.62h1.74a15.68,15.68,0,0,1,.08,1.7,3.25,3.25,0,0,1,3.25-1.94c2,0,3.48,1.19,3.48,3.95v6.67h-1.8V24.95c0-1.58-.61-2.62-2.19-2.62-2,0-2.74,1.49-2.74,3.58v5.48h-1.8Z"/><path class="cls-4" d="M103.28,31.39,98.1,17.15h2l2.5,7.1c.74,2.09,1.47,4.19,1.78,5.5h0c.31-1.17,1.1-3.38,1.86-5.44l2.62-7.16h1.94l-5.36,14.24Z"/><path class="cls-4" d="M113,17.15h5.4c2.76,0,4.67,1.56,4.67,4.15,0,2.76-2,4.24-4.79,4.24h-3.38v5.85H113Zm1.9,6.79h3.29c1.94,0,2.93-.94,2.93-2.6s-1.19-2.6-2.87-2.6h-3.36Z"/><path class="cls-4" d="M125.79,31.39V17.15h2.5c2,3.34,6.49,10.42,7.28,12h0c-.14-1.82-.12-4.07-.12-6.38V17.15h1.78V31.39H134.9c-1.88-3.09-6.51-10.7-7.39-12.3h0c.1,1.62.1,4,.1,6.61v5.69Z"/></g></g></svg>